<svg width="76" height="43" viewBox="0 0 76 43" fill="none" xmlns="http://www.w3.org/2000/svg">
<path d="M47.9163 2.16C47.9163 7.04 24.2363 23.8 19.5563 25.16C17.5563 27.24 17.0763 29.12 17.4762 30.12C17.7563 30.8 18.3963 30.96 18.8763 30.96C21.0763 30.96 26.5563 29.2 38.2763 17.44C38.6763 17.08 39.2363 17.08 39.6363 17.44C39.9963 17.8 39.9963 18.4 39.6363 18.8C30.4363 27.96 23.2763 32.84 18.8763 32.84C17.4363 32.84 16.2763 32.08 15.7562 30.84C15.5562 30.36 15.4362 29.8 15.4762 29.24L2.11625 42.56C1.95625 42.76 1.71625 42.84 1.43625 42.84C1.19625 42.84 0.956249 42.76 0.79625 42.56C0.43625 42.2 0.43625 41.6 0.79625 41.24L18.3563 23.64L24.5963 17.44L31.8363 10.2C32.7563 9.2 41.2763 0.399999 45.6763 0.399999C47.7563 0.399999 47.9163 1.76 47.9163 2.16ZM25.9163 18.8L23.7563 20.96C31.5163 16.04 45.5563 5.16 46.0363 2.32C45.9563 2.32 45.8363 2.28 45.6763 2.28C42.9563 2.28 36.5963 7.96 33.1963 11.52L25.9163 18.8Z" fill="#C41E3A"/>
<path d="M59.07 0.719999C59.63 0.719999 60.07 1.2 60.07 1.72C60.07 2.24 59.63 2.72 59.07 2.72C56.35 2.72 49.75 8.48 46.27 12.16L35.87 22.56C41.75 20.56 51.99 15.04 52.71 14.36C53.15 14 53.75 14 54.07 14.4C54.43 14.8 54.43 15.36 54.07 15.72C53.07 16.76 39.59 24.12 33.91 25.04C34.19 27.56 35.15 32.04 37.43 32.04C39.31 32.04 44.11 30.32 55.79 18.56L56.07 18.24C56.47 17.88 57.07 17.88 57.47 18.24C57.87 18.64 57.87 19.24 57.47 19.64L57.15 19.92C47.75 29.4 41.31 34 37.43 34C33.83 34 32.55 29.24 32.11 26.32L24.71 33.72C24.55 33.88 24.31 34 24.07 34C23.83 34 23.55 33.88 23.35 33.72C22.99 33.36 22.99 32.72 23.35 32.32L44.87 10.8C45.87 9.76 54.59 0.719999 59.07 0.719999Z" fill="#007A3D"/>
<path d="M60.02 16.88C60.02 18.12 60.34 19.24 60.78 20.52C61.22 22.04 61.78 23.76 61.78 25.92C61.78 30.36 58.14 34 53.7 34C49.5 34 46.58 30.68 46.58 25.92C46.58 25.4 47.02 24.96 47.54 24.96C48.1 24.96 48.54 25.4 48.54 25.92C48.54 28.76 49.9 32.04 53.7 32.04C57.06 32.04 59.82 29.32 59.82 25.92C59.82 24.08 59.34 22.56 58.9 21.12C58.66 20.32 58.42 19.52 58.26 18.68L54.78 22.16C54.58 22.36 54.34 22.44 54.1 22.44C53.82 22.44 53.58 22.36 53.38 22.16C53.02 21.8 53.02 21.16 53.38 20.8L58.22 15.96C58.58 14.8 59.66 13.96 60.98 13.96C61.5 13.96 61.94 14.4 61.94 14.96C61.94 15.48 61.5 15.92 60.98 15.92C60.42 15.92 60.02 16.36 60.02 16.88Z" fill="#0051BA"/>
<path d="M65.7081 31.68C66.2281 31.16 67.1481 31.16 67.6281 31.68C67.9081 31.92 68.0281 32.28 68.0281 32.64C68.0281 33.04 67.9081 33.36 67.6281 33.64C67.4281 33.92 67.0681 34.04 66.7081 34.04C66.3081 34.04 65.9881 33.92 65.7081 33.64C65.4281 33.32 65.3081 33 65.3081 32.64C65.3081 32.28 65.4281 31.92 65.7081 31.68ZM69.38 31.68C69.9 31.16 70.82 31.16 71.3 31.68C71.58 31.92 71.7 32.28 71.7 32.64C71.7 33.04 71.58 33.36 71.3 33.64C71.1 33.92 70.74 34.04 70.38 34.04C69.98 34.04 69.66 33.92 69.38 33.64C69.1 33.32 68.98 33 68.98 32.64C68.98 32.28 69.1 31.92 69.38 31.68ZM73.0519 31.68C73.5719 31.16 74.4919 31.16 74.9719 31.68C75.2519 31.92 75.3719 32.28 75.3719 32.64C75.3719 33.04 75.2519 33.36 74.9719 33.64C74.7719 33.92 74.4119 34.04 74.0519 34.04C73.6519 34.04 73.3319 33.92 73.0519 33.64C72.7719 33.32 72.6519 33 72.6519 32.64C72.6519 32.28 72.7719 31.92 73.0519 31.68Z" fill="#FCA311"/>
</svg>
